<svg width="200" height="200" viewBox="0 0 200 200" fill="none" xmlns="http://www.w3.org/2000/svg">
<path d="M165.625 37.1641V148.75C165.626 149.866 165.407 150.972 164.98 152.004C164.554 153.035 163.928 153.973 163.139 154.763C162.35 155.552 161.413 156.179 160.382 156.606C159.35 157.034 158.245 157.254 157.128 157.254H33.9839C32.8665 157.255 31.7598 157.036 30.7272 156.609C29.6945 156.182 28.7562 155.556 27.9657 154.766C27.1752 153.976 26.5481 153.038 26.1202 152.006C25.6924 150.974 25.4722 149.867 25.4722 148.75V37.1641C25.4722 36.047 25.6924 34.941 26.1204 33.9092C26.5483 32.8773 27.1755 31.94 27.9661 31.1509C28.7567 30.3618 29.6952 29.7363 30.7278 29.3102C31.7604 28.8842 32.8668 28.6659 33.9839 28.668H157.121C158.237 28.667 159.343 28.886 160.374 29.3125C161.406 29.739 162.344 30.3646 163.133 31.1537C163.923 31.9427 164.55 32.8797 164.977 33.911C165.404 34.9423 165.625 36.0477 165.625 37.1641Z" fill="#E3E4E5"/>
<path d="M165.625 37.1641V148.75C165.626 149.867 165.407 150.973 164.98 152.005C164.554 153.037 163.928 153.974 163.138 154.764C162.349 155.554 161.411 156.18 160.38 156.608C159.348 157.035 158.242 157.254 157.125 157.254H33.9846C32.8675 157.254 31.7613 157.035 30.7291 156.608C29.6969 156.181 28.759 155.554 27.9689 154.765C27.1788 153.975 26.5521 153.037 26.1245 152.005C25.6969 150.973 25.4768 149.867 25.4768 148.75V37.1641C25.4768 36.0474 25.697 34.9416 26.1247 33.91C26.5524 32.8785 27.1792 31.9414 27.9694 31.1523C28.7596 30.3632 29.6976 29.7376 30.7297 29.3113C31.7619 28.8851 32.8679 28.6664 33.9846 28.668H157.117C158.234 28.6664 159.34 28.8851 160.372 29.3113C161.404 29.7376 162.342 30.3632 163.133 31.1523C163.923 31.9414 164.55 32.8785 164.977 33.91C165.405 34.9416 165.625 36.0474 165.625 37.1641Z" fill="#E3E4E5"/>
<path d="M165.625 37.1641V50.6133H25.4722V37.1641C25.4722 36.0468 25.6924 34.9406 26.1203 33.9086C26.5482 32.8765 27.1754 31.939 27.9659 31.1495C28.7564 30.3601 29.6949 29.7342 30.7275 29.3077C31.7601 28.8813 32.8667 28.6625 33.9839 28.6641H157.117C158.234 28.663 159.34 28.8821 160.372 29.3089C161.404 29.7356 162.342 30.3615 163.132 31.1509C163.922 31.9403 164.549 32.8777 164.977 33.9095C165.404 34.9412 165.625 36.0472 165.625 37.1641Z" fill="white"/>
<path d="M166.796 51.7852H24.3003V37.1641C24.3034 34.5978 25.325 32.1378 27.1407 30.3243C28.9564 28.5108 31.4177 27.4922 33.9839 27.4922H157.117C159.682 27.4932 162.143 28.5123 163.957 30.3257C165.772 32.1391 166.793 34.5985 166.796 37.1641V51.7852ZM26.6519 49.4414H164.453V37.1641C164.451 35.2212 163.678 33.3584 162.304 31.9846C160.93 30.6107 159.067 29.838 157.125 29.8359H33.9839C32.0393 29.8359 30.1741 30.6076 28.798 31.9816C27.4218 33.3555 26.6471 35.2194 26.644 37.1641L26.6519 49.4414Z" fill="white"/>
<path d="M39.0234 43.4805C41.1441 43.4805 42.8633 41.7613 42.8633 39.6406C42.8633 37.5199 41.1441 35.8008 39.0234 35.8008C36.9028 35.8008 35.1836 37.5199 35.1836 39.6406C35.1836 41.7613 36.9028 43.4805 39.0234 43.4805Z" fill="#F9F9F9"/>
<path d="M53.7773 43.4805C55.898 43.4805 57.6172 41.7613 57.6172 39.6406C57.6172 37.5199 55.898 35.8008 53.7773 35.8008C51.6567 35.8008 49.9375 37.5199 49.9375 39.6406C49.9375 41.7613 51.6567 43.4805 53.7773 43.4805Z" fill="#F9F9F9"/>
<path d="M78.9492 72.9609C78.0491 74.1078 76.7656 74.8916 75.3342 75.1686C73.9028 75.4455 72.4195 75.197 71.1566 74.4687C69.8936 73.7404 68.9356 72.581 68.4584 71.2034C67.9812 69.8258 68.0168 68.3223 68.5586 66.9688C65.2046 66.1465 61.7016 66.1465 58.3477 66.9688C58.8929 68.3218 58.9313 69.8262 58.4559 71.2053C57.9804 72.5844 57.023 73.7455 55.7598 74.475C54.4965 75.2046 53.0123 75.4535 51.5802 75.176C50.1481 74.8986 48.8642 74.1134 47.9648 72.9648C45.5756 75.4573 43.8264 78.4919 42.8672 81.8086C44.3133 82.0113 45.6374 82.7297 46.5956 83.8316C47.5539 84.9334 48.0816 86.3445 48.0816 87.8047C48.0816 89.2649 47.5539 90.676 46.5956 91.7778C45.6374 92.8797 44.3133 93.5981 42.8672 93.8008C43.84 97.1123 45.5905 100.143 47.9727 102.641C48.8711 101.49 50.1549 100.703 51.5877 100.424C53.0204 100.145 54.5057 100.394 55.7701 101.123C57.0344 101.852 57.9927 103.014 58.4685 104.394C58.9442 105.774 58.9055 107.279 58.3594 108.633C61.7134 109.455 65.2163 109.455 68.5703 108.633C68.0251 107.28 67.9866 105.775 68.4621 104.396C68.9376 103.017 69.8949 101.856 71.1582 101.127C72.4215 100.397 73.9056 100.148 75.3378 100.426C76.7699 100.703 78.0537 101.488 78.9531 102.637C81.3424 100.144 83.0916 97.1097 84.0508 93.793C82.6047 93.5903 81.2805 92.8719 80.3223 91.77C79.3641 90.6682 78.8364 89.2571 78.8364 87.7969C78.8364 86.3366 79.3641 84.9256 80.3223 83.8238C81.2805 82.7219 82.6047 82.0034 84.0508 81.8008C83.0778 78.4902 81.3289 75.4597 78.9492 72.9609ZM67.4219 94.6719C66.0634 95.4595 64.5018 95.8264 62.9347 95.7263C61.3676 95.6262 59.8654 95.0635 58.6182 94.1094C57.371 93.1553 56.4348 91.8527 55.928 90.3665C55.4212 88.8802 55.3667 87.277 55.7713 85.7597C56.1759 84.2425 57.0215 82.8793 58.201 81.8427C59.3805 80.8061 60.841 80.1426 62.3977 79.9363C63.9544 79.7299 65.5373 79.9899 66.9461 80.6834C68.355 81.3768 69.5265 82.4726 70.3125 83.832C71.3664 85.6529 71.6539 87.8177 71.1119 89.8505C70.5698 91.8833 69.2425 93.6176 67.4219 94.6719Z" fill="#555555"/>
<path d="M147.727 66.3516H97.2695V142.883H147.727V66.3516Z" fill="#F9F9F9"/>
<path d="M138.496 88.3867H107.238V93.6836H138.496V88.3867Z" fill="#E3E4E5"/>
<path d="M129.363 102.23H107.238V107.527H129.363V102.23Z" fill="#E3E4E5"/>
<path d="M118.004 116.074H107.238V121.371H118.004V116.074Z" fill="#E3E4E5"/>
<path d="M116.269 75.5547H107.238V80.8516H116.269V75.5547Z" fill="#E3E4E5"/>
<path d="M138.496 75.5547H124.051V80.8516H138.496V75.5547Z" fill="#E3E4E5"/>
<path d="M84.0159 121.371H42.8948V142.879H84.0159V121.371Z" fill="#F9F9F9"/>
<path d="M165.625 129.531V148.75C165.626 149.867 165.407 150.973 164.98 152.005C164.553 153.037 163.927 153.974 163.138 154.764C162.348 155.554 161.411 156.18 160.379 156.608C159.347 157.035 158.241 157.254 157.125 157.254H111.078V142.934C111.082 139.38 112.496 135.973 115.009 133.46C117.523 130.947 120.93 129.534 124.484 129.531H165.625Z" fill="#ECEDEE" style="mix-blend-mode:multiply"/>
<path d="M157.121 158.426H33.9839C31.4173 158.425 28.956 157.405 27.1405 155.591C25.3249 153.777 24.3034 151.317 24.3003 148.75V37.1641C24.3044 34.5985 25.3265 32.1395 27.1421 30.3268C28.9576 28.5142 31.4183 27.4961 33.9839 27.4961H157.121C159.685 27.4961 162.145 28.5144 163.96 30.3273C165.774 32.1402 166.794 34.5992 166.796 37.1641V148.75C166.794 151.316 165.774 153.775 163.96 155.59C162.146 157.404 159.686 158.424 157.121 158.426ZM33.9839 29.8398C32.0396 29.8388 30.1745 30.6096 28.7982 31.983C27.4219 33.3563 26.6471 35.2198 26.644 37.1641V148.75C26.6461 150.695 27.4203 152.56 28.7966 153.935C30.1729 155.31 32.0386 156.082 33.9839 156.082H157.121C159.065 156.081 160.929 155.308 162.304 153.933C163.679 152.559 164.452 150.694 164.453 148.75V37.1641C164.451 35.2222 163.678 33.3605 162.305 31.9873C160.932 30.6142 159.07 29.8419 157.128 29.8398H33.9839Z" fill="white"/>
<path d="M180.098 136.457H123.91C120.648 136.457 118.004 139.101 118.004 142.363V179.492C118.004 182.754 120.648 185.398 123.91 185.398H180.098C183.36 185.398 186.004 182.754 186.004 179.492V142.363C186.004 139.101 183.36 136.457 180.098 136.457Z" fill="#F9F9F9"/>
<path d="M180.098 186.57H123.91C122.034 186.568 120.234 185.822 118.907 184.495C117.58 183.168 116.834 181.369 116.832 179.492V142.363C116.834 140.487 117.58 138.688 118.907 137.361C120.234 136.034 122.034 135.287 123.91 135.285H180.098C181.975 135.286 183.774 136.032 185.102 137.359C186.429 138.687 187.175 140.486 187.176 142.363V179.492C187.174 181.369 186.427 183.168 185.1 184.495C183.773 185.822 181.974 186.568 180.098 186.57ZM123.91 137.629C122.655 137.63 121.451 138.129 120.564 139.017C119.676 139.904 119.177 141.108 119.176 142.363V179.492C119.178 180.747 119.677 181.95 120.565 182.838C121.452 183.725 122.655 184.224 123.91 184.227H180.098C181.353 184.226 182.557 183.726 183.444 182.839C184.332 181.951 184.831 180.748 184.832 179.492V142.363C184.832 141.108 184.333 139.903 183.445 139.016C182.558 138.128 181.353 137.629 180.098 137.629H123.91Z" fill="white"/>
<path d="M138.195 146.102H133.07V175.539H138.195V146.102Z" fill="#0F62FE"/>
<path d="M141.379 149.211H129.894V154.336H141.379V149.211Z" fill="#0F62FE"/>
<path d="M155.109 146.102H149.984V175.539H155.109V146.102Z" fill="#0F62FE"/>
<path d="M158.289 165.969H146.805V171.094H158.289V165.969Z" fill="#0F62FE"/>
<path d="M172.02 146.102H166.895V175.539H172.02V146.102Z" fill="#0F62FE"/>
<path d="M175.203 153.195H163.719V158.32H175.203V153.195Z" fill="#0F62FE"/>
<path d="M36.168 176.82C35.2546 176.821 34.3615 176.551 33.6017 176.044C32.8419 175.537 32.2495 174.816 31.8995 173.973C31.5494 173.129 31.4574 172.201 31.6351 171.305C31.8128 170.409 32.2523 169.586 32.8978 168.94C33.5434 168.294 34.3661 167.853 35.2619 167.675C36.1576 167.496 37.0862 167.588 37.9301 167.937C38.774 168.286 39.4953 168.878 40.0028 169.638C40.5104 170.397 40.7813 171.29 40.7813 172.203C40.7802 173.427 40.294 174.6 39.4291 175.465C38.5643 176.331 37.3915 176.818 36.168 176.82ZM36.168 169.934C35.718 169.933 35.2779 170.066 34.9034 170.315C34.529 170.565 34.237 170.92 34.0644 171.335C33.8919 171.751 33.8465 172.208 33.9341 172.65C34.0217 173.091 34.2383 173.496 34.5565 173.815C34.8747 174.133 35.2801 174.349 35.7215 174.437C36.1629 174.525 36.6203 174.479 37.0359 174.307C37.4515 174.134 37.8065 173.842 38.056 173.468C38.3055 173.093 38.4383 172.653 38.4375 172.203C38.4385 171.904 38.3806 171.608 38.2671 171.332C38.1535 171.055 37.9866 170.804 37.7758 170.592C37.565 170.38 37.3145 170.212 37.0386 170.097C36.7627 169.982 36.4669 169.922 36.168 169.922V169.934Z" fill="white"/>
<path d="M16.5586 163.91C15.8463 163.91 15.1499 163.699 14.5577 163.303C13.9654 162.907 13.5038 162.345 13.2312 161.687C12.9586 161.029 12.8873 160.305 13.0262 159.606C13.1652 158.907 13.5082 158.266 14.0119 157.762C14.5156 157.258 15.1573 156.915 15.856 156.776C16.5546 156.637 17.2788 156.709 17.9369 156.981C18.595 157.254 19.1574 157.715 19.5532 158.308C19.9489 158.9 20.1602 159.596 20.1602 160.309C20.1591 161.263 19.7793 162.179 19.1041 162.854C18.4289 163.529 17.5135 163.909 16.5586 163.91ZM16.5586 159.051C16.3098 159.051 16.0666 159.125 15.8598 159.263C15.6529 159.401 15.4917 159.597 15.3965 159.827C15.3013 160.057 15.2764 160.31 15.325 160.554C15.3735 160.798 15.4933 161.022 15.6692 161.198C15.8451 161.374 16.0692 161.494 16.3132 161.542C16.5572 161.591 16.8101 161.566 17.0399 161.471C17.2698 161.375 17.4662 161.214 17.6044 161.007C17.7426 160.801 17.8164 160.557 17.8164 160.309C17.8154 159.975 17.6825 159.656 17.4469 159.42C17.2112 159.185 16.8919 159.052 16.5586 159.051Z" fill="white"/>
<path d="M172.766 19.2522L167.999 24.0205L169.657 25.6775L174.423 20.9092L172.766 19.2522Z" fill="white"/>
<path d="M164.446 14.582H162.102V21.3242H164.446V14.582Z" fill="white"/>
<path d="M179.293 28.8359H172.551V31.1797H179.293V28.8359Z" fill="white"/>
<path d="M178.906 129.457H176.562V127.113H178.906V129.457ZM178.906 123.207H176.562V120.863H178.906V123.207ZM178.906 116.957H176.562V114.613H178.906V116.957ZM178.906 110.707H176.562V108.363H178.906V110.707ZM178.906 104.457H176.562V102.113H178.906V104.457ZM178.906 98.207H176.562V95.8633H178.906V98.207ZM178.906 91.957H176.562V89.6133H178.906V91.957ZM178.906 85.707H176.562V83.3633H178.906V85.707ZM178.906 79.457H176.562V77.1133H178.906V79.457Z" fill="white"/>
<path d="M159.602 79.375H157.258V77.0312H159.602V79.375ZM153.352 79.375H151.008V77.0312H153.352V79.375Z" fill="#555555"/>
<path d="M172.5 77.0312H170.156V79.375H172.5V77.0312Z" fill="white"/>
<path d="M75.4221 129.477H51.4885V134.773H75.4221V129.477Z" fill="#E3E4E5"/>
</svg>
