<svg width="162" height="48" viewBox="0 0 162 48" fill="none" xmlns="http://www.w3.org/2000/svg">
<path d="M20.6722 0.149414H23.6618L23.7028 0.162227C24.4076 0.37604 25.8486 0.413511 26.6259 0.550902C27.2017 0.652688 28.0093 0.809354 28.5796 0.966196C31.9646 1.89723 35.2715 3.51536 37.976 5.77031C38.523 6.22644 39.4484 7.2805 39.9107 7.83546C40.2289 8.21756 40.9889 9.19498 41.1952 9.61646C41.5713 10.3848 42.1054 11.3767 42.3783 12.196C42.4273 12.3433 42.4276 12.6207 42.3778 12.7723C42.0868 13.6591 41.652 14.4652 41.2776 15.3166C39.9377 18.3635 38.6013 21.4233 37.2299 24.4552C36.9897 24.9861 36.8362 25.6863 36.5509 26.2889C36.0846 27.2735 35.668 28.3182 35.2265 29.3162C35.0246 29.7726 34.7691 30.227 34.5624 30.6885C34.2458 31.3951 34.032 32.0894 33.6322 32.756C33.0794 33.6777 32.3459 34.202 31.4269 34.7193C29.9601 35.545 27.5455 35.5106 25.9606 35.0065C24.1295 34.4241 22.7566 33.3055 21.8625 31.6679C21.4696 30.9482 18.3451 23.8207 18.2251 23.7349C18.127 23.8143 17.9 24.5275 17.806 24.7509C17.3319 25.874 16.8708 27.0026 16.4225 28.1363C15.9436 29.3335 15.2406 30.9769 14.5956 32.0941C14.0976 32.9568 12.1212 34.484 11.1631 34.7566C11.4714 35.1019 11.9211 35.8323 12.1806 36.0666C13.2573 37.0387 14.5338 38.1282 15.8408 38.7736C16.5686 39.133 17.8544 39.7143 18.6059 39.9755C19.5687 40.3101 20.9569 40.4559 21.9664 40.588C24.0754 40.7168 26.3091 40.3708 28.2603 39.5559C28.6747 39.3828 29.5551 39.0302 29.9251 38.7709C31.0227 38.002 32.0749 37.1033 33.0956 36.2339C34.6414 34.8216 36.3289 31.8607 36.907 29.8618C37.7349 26.6944 37.7992 23.2948 42.0819 23.6506C43.3006 23.7037 43.9962 24.0342 44.834 24.9137C46.7781 26.9029 45.4708 30.0147 44.7161 32.2622C44.1631 33.9094 43.398 35.8804 42.5213 37.4107C41.5806 39.0529 40.0367 40.8268 38.7066 42.171C38.4173 42.4635 37.9307 42.7252 37.6173 43.0061C37.3157 43.2596 36.9975 43.558 36.6889 43.7859C34.654 45.2576 32.374 46.3565 29.9549 47.0315C29.4425 47.1692 28.6249 47.279 28.1867 47.4082C27.4553 47.6242 25.7703 47.6233 25.2373 47.8505H22.1507C21.817 47.6579 20.1607 47.5468 19.6236 47.4595C19.0291 47.3569 18.4377 47.2371 17.8502 47.1003C16.0169 46.6575 14.2369 46.0176 12.5415 45.1914C10.9353 44.4116 9.06564 43.057 7.62547 41.9772C7.22523 41.6771 6.83908 41.11 6.36976 40.7748C6.18584 40.6435 5.69227 39.7622 5.51965 39.5659C4.58093 38.2346 3.99023 36.9501 3.46267 35.4172C3.56272 35.0919 3.77021 34.7025 3.89596 34.3734C4.4807 32.9496 5.09506 31.5744 5.66734 30.1436C6.4419 28.2069 7.36041 26.3008 8.17439 24.3778C8.344 23.9771 8.56635 23.5921 8.74411 23.1953L11.5843 16.7402C11.9171 15.9888 11.9765 15.3776 12.545 14.7202C15.231 11.6299 20.8663 12.2289 23.3466 15.2951C24.2161 16.37 24.3563 17.2812 24.904 18.4871C25.6048 19.9922 26.2727 21.5123 26.9074 23.0463C27.1212 23.5504 27.3899 23.9995 27.5598 24.4964C28.6518 22.2614 29.4701 19.7893 30.4812 17.5054C30.7105 16.9875 30.8393 16.549 31.1266 16.0386C31.3994 15.5589 31.742 15.1224 32.1432 14.7435C32.8307 14.1043 33.9364 13.6458 34.7928 13.249C34.484 12.8944 34.1025 12.3086 33.7888 12.001C32.6851 10.9187 31.1288 9.7453 29.7866 8.99536C29.2611 8.70173 27.9737 8.19474 27.395 8.01816C24.109 7.01549 19.9937 7.09438 16.9063 8.69372C15.5727 9.38448 14.282 10.2508 13.1675 11.241C12.8872 11.4899 12.5542 11.7498 12.2981 12.0166C12.1491 12.172 11.962 12.5916 11.818 12.7743C10.4715 14.4886 9.535 16.4946 8.83618 18.5505C8.19055 20.4502 8.30859 22.7794 6.26819 23.8726C4.45913 24.8418 1.32724 24.2607 0.443881 22.2533C0.292721 21.9099 0.191449 21.5408 0.020305 21.2069L0 21.1679V19.6484C0.0844467 19.5268 0.537038 17.5969 0.636922 17.2444C1.12723 15.5138 1.74775 13.6798 2.55878 12.0678C3.59948 9.99947 5.11266 7.93968 6.67334 6.22865C8.1514 4.70451 10.5093 3.29256 12.3692 2.28158C13.2895 1.78129 14.7926 1.35483 15.7876 1.02123C16.0223 0.958326 16.5898 0.850598 16.7741 0.774429C17.7536 0.369538 19.838 0.479309 20.6722 0.149414Z" fill="url(#paint0_linear_100_9534)"/>
<defs>
<linearGradient id="paint0_linear_100_9534" x1="22.9254" y1="0.149414" x2="22.9254" y2="47.8505" gradientUnits="userSpaceOnUse">
<stop stop-color="#4F52EE"/>
<stop offset="1" stop-color="#15A9FB"/>
</linearGradient>
</defs>
</svg>
